<?xml version="1.0" encoding="UTF-8" standalone="no"?>
<!-- Created with Inkscape (http://www.inkscape.org/) -->

<svg
   version="1.1"
   id="svg1"
   width="593.13196"
   height="204.59015"
   viewBox="0 0 593.13196 204.59015"
   xmlns="http://www.w3.org/2000/svg"
   xmlns:svg="http://www.w3.org/2000/svg">
  <defs
     id="defs1">
    <clipPath
       clipPathUnits="userSpaceOnUse"
       id="clipPath4">
      <path
         d="m 78.125,53.125 h 2325 V 1693.75 h -2325 z"
         transform="matrix(0.35661539,0,0,0.35661539,-29.47821,-20.559614)"
         clip-rule="evenodd"
         id="path4" />
    </clipPath>
    <clipPath
       clipPathUnits="userSpaceOnUse"
       id="clipPath5">
      <path
         d="m 78.125,53.125 h 2325 V 1693.75 h -2325 z"
         transform="matrix(0.35661539,0,0,0.35661539,-80.181335,-194.05961)"
         clip-rule="evenodd"
         id="path5" />
    </clipPath>
    <clipPath
       clipPathUnits="userSpaceOnUse"
       id="clipPath7">
      <path
         d="m 78.125,53.125 h 2325 V 1693.75 h -2325 z"
         transform="matrix(0.35661539,0,0,0.35661539,-29.47821,-20.559614)"
         clip-rule="evenodd"
         id="path7" />
    </clipPath>
    <clipPath
       clipPathUnits="userSpaceOnUse"
       id="clipPath8">
      <path
         d="m 78.125,53.125 h 2325 V 1693.75 h -2325 z"
         transform="matrix(0.35661539,0,0,0.35661539,-435.96259,-187.05961)"
         clip-rule="evenodd"
         id="path8" />
    </clipPath>
    <clipPath
       clipPathUnits="userSpaceOnUse"
       id="clipPath9">
      <path
         d="m 78.125,53.125 h 2325 V 1693.75 h -2325 z"
         transform="matrix(0.35661539,0,0,0.35661539,-444.63447,-202.05961)"
         clip-rule="evenodd"
         id="path9" />
    </clipPath>
    <clipPath
       clipPathUnits="userSpaceOnUse"
       id="clipPath11">
      <path
         d="m 78.125,53.125 h 2325 V 1693.75 h -2325 z"
         transform="matrix(0.35661539,0,0,0.35661539,-29.47821,-20.559614)"
         clip-rule="evenodd"
         id="path11" />
    </clipPath>
    <clipPath
       clipPathUnits="userSpaceOnUse"
       id="clipPath13">
      <path
         d="m 78.125,53.125 h 2325 V 1693.75 h -2325 z"
         transform="matrix(0.35661539,0,0,0.35661539,-29.47821,-20.559614)"
         clip-rule="evenodd"
         id="path13" />
    </clipPath>
    <clipPath
       clipPathUnits="userSpaceOnUse"
       id="clipPath15">
      <path
         d="m 78.125,53.125 h 2325 V 1693.75 h -2325 z"
         transform="matrix(0.35661539,0,0,0.35661539,-29.47821,-20.559614)"
         clip-rule="evenodd"
         id="path15" />
    </clipPath>
    <clipPath
       clipPathUnits="userSpaceOnUse"
       id="clipPath16">
      <path
         d="m 78.125,53.125 h 2325 V 1693.75 h -2325 z"
         transform="matrix(0.35661539,0,0,0.35661539,-189.29071,-194.05961)"
         clip-rule="evenodd"
         id="path16" />
    </clipPath>
    <clipPath
       clipPathUnits="userSpaceOnUse"
       id="clipPath18">
      <path
         d="m 78.125,53.125 h 2325 V 1693.75 h -2325 z"
         transform="matrix(0.35661539,0,0,0.35661539,-29.47821,-20.559614)"
         clip-rule="evenodd"
         id="path18" />
    </clipPath>
    <clipPath
       clipPathUnits="userSpaceOnUse"
       id="clipPath19">
      <path
         d="m 78.125,53.125 h 2325 V 1693.75 h -2325 z"
         transform="matrix(0.35661539,0,0,0.35661539,-380.63446,-194.05961)"
         clip-rule="evenodd"
         id="path19" />
    </clipPath>
    <clipPath
       clipPathUnits="userSpaceOnUse"
       id="clipPath21">
      <path
         d="m 78.125,53.125 h 2325 V 1693.75 h -2325 z"
         transform="matrix(0.35661539,0,0,0.35661539,-29.47821,-20.559614)"
         clip-rule="evenodd"
         id="path21" />
    </clipPath>
    <clipPath
       clipPathUnits="userSpaceOnUse"
       id="clipPath23">
      <path
         d="m 78.125,53.125 h 2325 V 1693.75 h -2325 z"
         transform="matrix(0.35661539,0,0,0.35661539,-29.47821,-20.559614)"
         clip-rule="evenodd"
         id="path23" />
    </clipPath>
    <clipPath
       clipPathUnits="userSpaceOnUse"
       id="clipPath25">
      <path
         d="m 78.125,53.125 h 2325 V 1693.75 h -2325 z"
         transform="matrix(0.35661539,0,0,0.35661539,-28.978211,-20.059615)"
         clip-rule="evenodd"
         id="path25" />
    </clipPath>
    <clipPath
       clipPathUnits="userSpaceOnUse"
       id="clipPath26">
      <path
         d="m 78.125,53.125 h 2325 V 1693.75 h -2325 z"
         transform="matrix(0.35661539,0,0,0.35661539,-204.35321,-260.05962)"
         clip-rule="evenodd"
         id="path26" />
    </clipPath>
    <clipPath
       clipPathUnits="userSpaceOnUse"
       id="clipPath28">
      <path
         d="m 78.125,53.125 h 2325 V 1693.75 h -2325 z"
         transform="matrix(0.35661539,0,0,0.35661539,-29.47821,-20.559614)"
         clip-rule="evenodd"
         id="path28" />
    </clipPath>
    <clipPath
       clipPathUnits="userSpaceOnUse"
       id="clipPath29">
      <path
         d="m 78.125,53.125 h 2325 V 1693.75 h -2325 z"
         transform="matrix(0.35661539,0,0,0.35661539,-546.29071,-194.05961)"
         clip-rule="evenodd"
         id="path29" />
    </clipPath>
    <clipPath
       clipPathUnits="userSpaceOnUse"
       id="clipPath31">
      <path
         d="m 78.125,53.125 h 2325 V 1693.75 h -2325 z"
         transform="matrix(0.35661539,0,0,0.35661539,-29.47821,-20.559614)"
         clip-rule="evenodd"
         id="path31" />
    </clipPath>
    <clipPath
       clipPathUnits="userSpaceOnUse"
       id="clipPath32">
      <path
         d="m 78.125,53.125 h 2325 V 1693.75 h -2325 z"
         transform="matrix(0.35661539,0,0,0.35661539,-300.61884,-194.05961)"
         clip-rule="evenodd"
         id="path32" />
    </clipPath>
    <clipPath
       clipPathUnits="userSpaceOnUse"
       id="clipPath34">
      <path
         d="m 78.125,53.125 h 2325 V 1693.75 h -2325 z"
         transform="matrix(0.35661539,0,0,0.35661539,-29.47821,-20.559614)"
         clip-rule="evenodd"
         id="path34" />
    </clipPath>
    <clipPath
       clipPathUnits="userSpaceOnUse"
       id="clipPath36">
      <path
         d="m 78.125,53.125 h 2325 V 1693.75 h -2325 z"
         transform="matrix(0.35661539,0,0,0.35661539,-29.47821,-20.559614)"
         clip-rule="evenodd"
         id="path36" />
    </clipPath>
    <clipPath
       clipPathUnits="userSpaceOnUse"
       id="clipPath38">
      <path
         d="m 78.125,53.125 h 2325 V 1693.75 h -2325 z"
         transform="matrix(0.35661539,0,0,0.35661539,-29.47821,-20.559614)"
         clip-rule="evenodd"
         id="path38" />
    </clipPath>
    <clipPath
       clipPathUnits="userSpaceOnUse"
       id="clipPath40">
      <path
         d="m 78.125,53.125 h 2325 V 1693.75 h -2325 z"
         transform="matrix(0.35661539,0,0,0.35661539,-28.978211,-20.059615)"
         clip-rule="evenodd"
         id="path40" />
    </clipPath>
    <clipPath
       clipPathUnits="userSpaceOnUse"
       id="clipPath41">
      <path
         d="m 78.125,53.125 h 2325 V 1693.75 h -2325 z"
         transform="matrix(0.35661539,0,0,0.35661539,-306.85321,-287.05962)"
         clip-rule="evenodd"
         id="path41" />
    </clipPath>
    <clipPath
       clipPathUnits="userSpaceOnUse"
       id="clipPath43">
      <path
         d="m 78.125,53.125 h 2325 V 1693.75 h -2325 z"
         transform="matrix(0.35661539,0,0,0.35661539,-28.978211,-20.059615)"
         clip-rule="evenodd"
         id="path43" />
    </clipPath>
    <clipPath
       clipPathUnits="userSpaceOnUse"
       id="clipPath44">
      <path
         d="m 78.125,53.125 h 2325 V 1693.75 h -2325 z"
         transform="matrix(0.35661539,0,0,0.35661539,-514.19696,-260.05962)"
         clip-rule="evenodd"
         id="path44" />
    </clipPath>
    <clipPath
       clipPathUnits="userSpaceOnUse"
       id="clipPath46">
      <path
         d="m 78.125,53.125 h 2325 V 1693.75 h -2325 z"
         transform="matrix(0.35661539,0,0,0.35661539,-29.47821,-20.559614)"
         clip-rule="evenodd"
         id="path46" />
    </clipPath>
    <clipPath
       clipPathUnits="userSpaceOnUse"
       id="clipPath47">
      <path
         d="m 78.125,53.125 h 2325 V 1693.75 h -2325 z"
         transform="matrix(0.35661539,0,0,0.35661539,-435.96259,-117.05962)"
         clip-rule="evenodd"
         id="path47" />
    </clipPath>
    <clipPath
       clipPathUnits="userSpaceOnUse"
       id="clipPath48">
      <path
         d="m 78.125,53.125 h 2325 V 1693.75 h -2325 z"
         transform="matrix(0.35661539,0,0,0.35661539,-444.63447,-132.05962)"
         clip-rule="evenodd"
         id="path48" />
    </clipPath>
    <clipPath
       clipPathUnits="userSpaceOnUse"
       id="clipPath50">
      <path
         d="m 78.125,53.125 h 2325 V 1693.75 h -2325 z"
         transform="matrix(0.35661539,0,0,0.35661539,-29.47821,-20.559614)"
         clip-rule="evenodd"
         id="path50" />
    </clipPath>
    <clipPath
       clipPathUnits="userSpaceOnUse"
       id="clipPath51">
      <path
         d="m 78.125,53.125 h 2325 V 1693.75 h -2325 z"
         transform="matrix(0.35661539,0,0,0.35661539,-376.29071,-124.05961)"
         clip-rule="evenodd"
         id="path51" />
    </clipPath>
    <clipPath
       clipPathUnits="userSpaceOnUse"
       id="clipPath53">
      <path
         d="m 78.125,53.125 h 2325 V 1693.75 h -2325 z"
         transform="matrix(0.35661539,0,0,0.35661539,-29.47821,-20.559614)"
         clip-rule="evenodd"
         id="path53" />
    </clipPath>
    <clipPath
       clipPathUnits="userSpaceOnUse"
       id="clipPath54">
      <path
         d="m 78.125,53.125 h 2325 V 1693.75 h -2325 z"
         transform="matrix(0.35661539,0,0,0.35661539,-546.29071,-124.05961)"
         clip-rule="evenodd"
         id="path54" />
    </clipPath>
    <clipPath
       clipPathUnits="userSpaceOnUse"
       id="clipPath56">
      <path
         d="m 78.125,53.125 h 2325 V 1693.75 h -2325 z"
         transform="matrix(0.35661539,0,0,0.35661539,-29.47821,-20.559614)"
         clip-rule="evenodd"
         id="path56" />
    </clipPath>
    <clipPath
       clipPathUnits="userSpaceOnUse"
       id="clipPath57">
      <path
         d="m 78.125,53.125 h 2325 V 1693.75 h -2325 z"
         transform="matrix(0.35661539,0,0,0.35661539,-665.97821,-124.05961)"
         clip-rule="evenodd"
         id="path57" />
    </clipPath>
    <clipPath
       clipPathUnits="userSpaceOnUse"
       id="clipPath59">
      <path
         d="m 78.125,53.125 h 2325 V 1693.75 h -2325 z"
         transform="matrix(0.35661539,0,0,0.35661539,-29.47821,-20.559614)"
         clip-rule="evenodd"
         id="path59" />
    </clipPath>
    <clipPath
       clipPathUnits="userSpaceOnUse"
       id="clipPath61">
      <path
         d="m 78.125,53.125 h 2325 V 1693.75 h -2325 z"
         transform="matrix(0.35661539,0,0,0.35661539,-29.47821,-20.559614)"
         clip-rule="evenodd"
         id="path61" />
    </clipPath>
    <clipPath
       clipPathUnits="userSpaceOnUse"
       id="clipPath63">
      <path
         d="m 78.125,53.125 h 2325 V 1693.75 h -2325 z"
         transform="matrix(0.35661539,0,0,0.35661539,-29.47821,-20.559614)"
         clip-rule="evenodd"
         id="path63" />
    </clipPath>
    <clipPath
       clipPathUnits="userSpaceOnUse"
       id="clipPath65">
      <path
         d="m 78.125,53.125 h 2325 V 1693.75 h -2325 z"
         transform="matrix(0.35661539,0,0,0.35661539,-28.978211,-20.059615)"
         clip-rule="evenodd"
         id="path65" />
    </clipPath>
    <clipPath
       clipPathUnits="userSpaceOnUse"
       id="clipPath66">
      <path
         d="m 78.125,53.125 h 2325 V 1693.75 h -2325 z"
         transform="matrix(0.35661539,0,0,0.35661539,-506.43135,-77.059616)"
         clip-rule="evenodd"
         id="path66" />
    </clipPath>
    <clipPath
       clipPathUnits="userSpaceOnUse"
       id="clipPath68">
      <path
         d="m 78.125,53.125 h 2325 V 1693.75 h -2325 z"
         transform="matrix(0.35661539,0,0,0.35661539,-29.47821,-20.559614)"
         clip-rule="evenodd"
         id="path68" />
    </clipPath>
  </defs>
  <g
     id="g1"
     transform="translate(-61.895889,-56.584984)">
    <path
       id="path3"
       d="m 40,140 h 100 v 60 H 40 Z"
       style="fill:#cce5ff;fill-opacity:1;fill-rule:nonzero;stroke:#36393d;stroke-width:1;stroke-linecap:butt;stroke-linejoin:miter;stroke-miterlimit:10;stroke-dasharray:none;stroke-opacity:1"
       transform="matrix(0.89732524,0,0,0.89732524,26.451542,18.448661)"
       clip-path="url(#clipPath4)" />
    <text
       id="text4"
       xml:space="preserve"
       transform="matrix(0.89732524,0,0,0.89732524,71.948736,174.13459)"
       clip-path="url(#clipPath5)"><tspan
         style="font-variant:normal;font-weight:normal;font-size:12px;font-family:Arial;writing-mode:lr-tb;fill:#000000;fill-opacity:1;fill-rule:nonzero;stroke:none"
         x="0 6.8847656 10.880859 17.554688 24.228516 30.228516 36.902344 42.902344 46.236328 48.902344 55.576172 62.25 65.583984 68.917969"
         y="0"
         id="tspan4">Transaction ID</tspan></text>
    <path
       id="path6"
       d="m 400,140 h 60 v 60 h -60 z"
       style="fill:#cdeb8b;fill-opacity:1;fill-rule:nonzero;stroke:#36393d;stroke-width:1;stroke-linecap:butt;stroke-linejoin:miter;stroke-miterlimit:10;stroke-dasharray:none;stroke-opacity:1"
       transform="matrix(0.89732524,0,0,0.89732524,26.451542,18.448661)"
       clip-path="url(#clipPath7)" />
    <text
       id="text7"
       xml:space="preserve"
       transform="matrix(0.89732524,0,0,0.89732524,391.20024,167.85331)"
       clip-path="url(#clipPath8)"><tspan
         style="font-variant:normal;font-weight:normal;font-size:12px;font-family:Arial;writing-mode:lr-tb;fill:#000000;fill-opacity:1;fill-rule:nonzero;stroke:none"
         x="0 7.3300781 14.003906 20.677734 26.677734 30.011719 32.677734 39.351562"
         y="0"
         id="tspan7">Function</tspan></text>
    <text
       id="text8"
       xml:space="preserve"
       transform="matrix(0.89732524,0,0,0.89732524,398.98173,181.31319)"
       clip-path="url(#clipPath9)"><tspan
         style="font-variant:normal;font-weight:normal;font-size:12px;font-family:Arial;writing-mode:lr-tb;fill:#000000;fill-opacity:1;fill-rule:nonzero;stroke:none"
         x="0 8.6660156 15.339844 22.013672"
         y="0"
         id="tspan8">Code</tspan></text>
    <path
       id="path10"
       d="M 40,220 V 210"
       style="fill:none;stroke:#000000;stroke-width:1;stroke-linecap:butt;stroke-linejoin:miter;stroke-miterlimit:10;stroke-dasharray:none;stroke-opacity:1"
       transform="matrix(0.89732524,0,0,0.89732524,26.451542,18.448661)"
       clip-path="url(#clipPath11)" />
    <path
       id="path12"
       d="M 40,220 H 400"
       style="fill:none;stroke:#000000;stroke-width:1;stroke-linecap:butt;stroke-linejoin:miter;stroke-miterlimit:10;stroke-dasharray:none;stroke-opacity:1"
       transform="matrix(0.89732524,0,0,0.89732524,26.451542,18.448661)"
       clip-path="url(#clipPath13)" />
    <path
       id="path14"
       d="m 140,140 h 100 v 60 H 140 Z"
       style="fill:#cce5ff;fill-opacity:1;fill-rule:nonzero;stroke:#36393d;stroke-width:1;stroke-linecap:butt;stroke-linejoin:miter;stroke-miterlimit:10;stroke-dasharray:none;stroke-opacity:1"
       transform="matrix(0.89732524,0,0,0.89732524,26.451542,18.448661)"
       clip-path="url(#clipPath15)" />
    <text
       id="text15"
       xml:space="preserve"
       transform="matrix(0.89732524,0,0,0.89732524,169.85533,174.13459)"
       clip-path="url(#clipPath16)"><tspan
         style="font-variant:normal;font-weight:normal;font-size:12px;font-family:Arial;writing-mode:lr-tb;fill:#000000;fill-opacity:1;fill-rule:nonzero;stroke:none"
         x="0 8.0039062 12 18.673828 22.007812 28.681641 34.681641 41.355469 44.021484 47.355469 50.689453"
         y="0"
         id="tspan15">Protocol ID</tspan></text>
    <path
       id="path17"
       d="m 340,140 h 60 v 60 h -60 z"
       style="fill:#cce5ff;fill-opacity:1;fill-rule:nonzero;stroke:#36393d;stroke-width:1;stroke-linecap:butt;stroke-linejoin:miter;stroke-miterlimit:10;stroke-dasharray:none;stroke-opacity:1"
       transform="matrix(0.89732524,0,0,0.89732524,26.451542,18.448661)"
       clip-path="url(#clipPath18)" />
    <text
       id="text18"
       xml:space="preserve"
       transform="matrix(0.89732524,0,0,0.89732524,341.55291,174.13459)"
       clip-path="url(#clipPath19)"><tspan
         style="font-variant:normal;font-weight:normal;font-size:12px;font-family:Arial;writing-mode:lr-tb;fill:#000000;fill-opacity:1;fill-rule:nonzero;stroke:none"
         x="0 8.6660156 15.339844 18.005859 21.339844 24.673828 28.007812"
         y="0"
         id="tspan18">Unit ID</tspan></text>
    <path
       id="path20"
       d="M 400,220 V 210"
       style="fill:none;stroke:#000000;stroke-width:1;stroke-linecap:butt;stroke-linejoin:miter;stroke-miterlimit:10;stroke-dasharray:none;stroke-opacity:1"
       transform="matrix(0.89732524,0,0,0.89732524,26.451542,18.448661)"
       clip-path="url(#clipPath21)" />
    <path
       id="path22"
       d="M 600,220 V 210"
       style="fill:none;stroke:#000000;stroke-width:1;stroke-linecap:butt;stroke-linejoin:miter;stroke-miterlimit:10;stroke-dasharray:none;stroke-opacity:1"
       transform="matrix(0.89732524,0,0,0.89732524,26.451542,18.448661)"
       clip-path="url(#clipPath23)" />
    <path
       id="path24"
       d="m 175,229 h 90 v 14 h -90 z"
       style="fill:#fbfbfb;fill-opacity:1;fill-rule:nonzero;stroke:none"
       transform="matrix(0.89732524,0,0,0.89732524,26.00288,17.999999)"
       clip-path="url(#clipPath25)" />
    <text
       id="text25"
       xml:space="preserve"
       transform="matrix(0.89732524,0,0,0.89732524,183.37129,233.35806)"
       clip-path="url(#clipPath26)"><tspan
         style="font-variant:normal;font-weight:normal;font-size:14px;font-family:Arial;writing-mode:lr-tb;fill:#000000;fill-opacity:1;fill-rule:nonzero;stroke:none"
         x="0 11.662109 21 30.337891 39.422852 43.3125 53.422852 61.208984 68.995117 76.78125 84.567383"
         y="0"
         id="tspan25">MBAP Header</tspan></text>
    <path
       id="path27"
       d="m 460,140 h 140 v 60 H 460 Z"
       style="fill:#cdeb8b;fill-opacity:1;fill-rule:nonzero;stroke:#36393d;stroke-width:1;stroke-linecap:butt;stroke-linejoin:miter;stroke-miterlimit:10;stroke-dasharray:none;stroke-opacity:1"
       transform="matrix(0.89732524,0,0,0.89732524,26.451542,18.448661)"
       clip-path="url(#clipPath28)" />
    <text
       id="text28"
       xml:space="preserve"
       transform="matrix(0.89732524,0,0,0.89732524,490.20044,174.13459)"
       clip-path="url(#clipPath29)"><tspan
         style="font-variant:normal;font-weight:normal;font-size:12px;font-family:Arial;writing-mode:lr-tb;fill:#000000;fill-opacity:1;fill-rule:nonzero;stroke:none"
         x="0 8.6660156 15.339844 18.673828"
         y="0"
         id="tspan28">Data</tspan></text>
    <path
       id="path30"
       d="m 240,140 h 100 v 60 H 240 Z"
       style="fill:#cce5ff;fill-opacity:1;fill-rule:nonzero;stroke:#36393d;stroke-width:1;stroke-linecap:butt;stroke-linejoin:miter;stroke-miterlimit:10;stroke-dasharray:none;stroke-opacity:1"
       transform="matrix(0.89732524,0,0,0.89732524,26.451542,18.448661)"
       clip-path="url(#clipPath31)" />
    <text
       id="text31"
       xml:space="preserve"
       transform="matrix(0.89732524,0,0,0.89732524,269.75287,174.13459)"
       clip-path="url(#clipPath32)"><tspan
         style="font-variant:normal;font-weight:normal;font-size:12px;font-family:Arial;writing-mode:lr-tb;fill:#000000;fill-opacity:1;fill-rule:nonzero;stroke:none"
         x="0 6.6738281 13.347656 20.021484 26.695312 30.029297"
         y="0"
         id="tspan31">Length</tspan></text>
    <path
       id="path33"
       d="M 46.369999,260 H 593.63"
       style="fill:none;stroke:#000000;stroke-width:1;stroke-linecap:butt;stroke-linejoin:miter;stroke-miterlimit:10;stroke-dasharray:none;stroke-opacity:1"
       transform="matrix(0.89732524,0,0,0.89732524,26.451542,18.448661)"
       clip-path="url(#clipPath34)" />
    <path
       id="path35"
       d="m 41.119999,260 7,-3.5 -1.75,3.5 1.75,3.5 z"
       style="fill:#000000;fill-opacity:1;fill-rule:nonzero;stroke:#000000;stroke-width:1;stroke-linecap:butt;stroke-linejoin:miter;stroke-miterlimit:10;stroke-dasharray:none;stroke-opacity:1"
       transform="matrix(0.89732524,0,0,0.89732524,26.451542,18.448661)"
       clip-path="url(#clipPath36)" />
    <path
       id="path37"
       d="m 598.88,260 -7,3.5 1.75,-3.5 -1.75,-3.5 z"
       style="fill:#000000;fill-opacity:1;fill-rule:nonzero;stroke:#000000;stroke-width:1;stroke-linecap:butt;stroke-linejoin:miter;stroke-miterlimit:10;stroke-dasharray:none;stroke-opacity:1"
       transform="matrix(0.89732524,0,0,0.89732524,26.451542,18.448661)"
       clip-path="url(#clipPath38)" />
    <path
       id="path39"
       d="m 278,253 h 87 v 18 h -87 z"
       style="fill:#ffffff;fill-opacity:1;fill-rule:nonzero;stroke:none"
       transform="matrix(0.89732524,0,0,0.89732524,26.00288,17.999999)"
       clip-path="url(#clipPath40)" />
    <text
       id="text40"
       xml:space="preserve"
       transform="matrix(0.89732524,0,0,0.89732524,275.34713,257.58584)"
       clip-path="url(#clipPath41)"><tspan
         style="font-variant:normal;font-weight:normal;font-size:15px;font-family:Arial;writing-mode:lr-tb;fill:#000000;fill-opacity:1;fill-rule:nonzero;stroke:none"
         x="0 12.495117 20.837402 29.179688 37.521973 45.864258 53.364258 57.260742 66.42334 77.255859"
         y="0"
         id="tspan40">Modbus TCP</tspan></text>
    <path
       id="path42"
       d="m 485,229 h 30 v 14 h -30 z"
       style="fill:#fbfbfb;fill-opacity:1;fill-rule:nonzero;stroke:none"
       transform="matrix(0.89732524,0,0,0.89732524,26.00288,17.999999)"
       clip-path="url(#clipPath43)" />
    <text
       id="text43"
       xml:space="preserve"
       transform="matrix(0.89732524,0,0,0.89732524,461.40191,233.35806)"
       clip-path="url(#clipPath44)"><tspan
         style="font-variant:normal;font-weight:normal;font-size:14px;font-family:Arial;writing-mode:lr-tb;fill:#000000;fill-opacity:1;fill-rule:nonzero;stroke:none"
         x="0 9.3378906 19.448242"
         y="0"
         id="tspan43">PDU</tspan></text>
    <path
       id="path45"
       d="m 400,70 h 60 v 60 h -60 z"
       style="fill:#cdeb8b;fill-opacity:1;fill-rule:nonzero;stroke:#36393d;stroke-width:1;stroke-linecap:butt;stroke-linejoin:miter;stroke-miterlimit:10;stroke-dasharray:none;stroke-opacity:1"
       transform="matrix(0.89732524,0,0,0.89732524,26.451542,18.448661)"
       clip-path="url(#clipPath46)" />
    <text
       id="text46"
       xml:space="preserve"
       transform="matrix(0.89732524,0,0,0.89732524,391.20024,105.04055)"
       clip-path="url(#clipPath47)"><tspan
         style="font-variant:normal;font-weight:normal;font-size:12px;font-family:Arial;writing-mode:lr-tb;fill:#000000;fill-opacity:1;fill-rule:nonzero;stroke:none"
         x="0 7.3300781 14.003906 20.677734 26.677734 30.011719 32.677734 39.351562"
         y="0"
         id="tspan46">Function</tspan></text>
    <text
       id="text47"
       xml:space="preserve"
       transform="matrix(0.89732524,0,0,0.89732524,398.98173,118.50043)"
       clip-path="url(#clipPath48)"><tspan
         style="font-variant:normal;font-weight:normal;font-size:12px;font-family:Arial;writing-mode:lr-tb;fill:#000000;fill-opacity:1;fill-rule:nonzero;stroke:none"
         x="0 8.6660156 15.339844 22.013672"
         y="0"
         id="tspan47">Code</tspan></text>
    <path
       id="path49"
       d="m 340,70 h 60 v 60 h -60 z"
       style="fill:#ffcccc;fill-opacity:1;fill-rule:nonzero;stroke:#36393d;stroke-width:1;stroke-linecap:butt;stroke-linejoin:miter;stroke-miterlimit:10;stroke-dasharray:none;stroke-opacity:1"
       transform="matrix(0.89732524,0,0,0.89732524,26.451542,18.448661)"
       clip-path="url(#clipPath50)" />
    <text
       id="text50"
       xml:space="preserve"
       transform="matrix(0.89732524,0,0,0.89732524,337.65515,111.32182)"
       clip-path="url(#clipPath51)"><tspan
         style="font-variant:normal;font-weight:normal;font-size:12px;font-family:Arial;writing-mode:lr-tb;fill:#000000;fill-opacity:1;fill-rule:nonzero;stroke:none"
         x="0 8.0039062 10.669922 17.34375 23.34375 30.017578 33.351562 36.685547"
         y="0"
         id="tspan50">Slave ID</tspan></text>
    <path
       id="path52"
       d="m 460,70 h 140 v 60 H 460 Z"
       style="fill:#cdeb8b;fill-opacity:1;fill-rule:nonzero;stroke:#36393d;stroke-width:1;stroke-linecap:butt;stroke-linejoin:miter;stroke-miterlimit:10;stroke-dasharray:none;stroke-opacity:1"
       transform="matrix(0.89732524,0,0,0.89732524,26.451542,18.448661)"
       clip-path="url(#clipPath53)" />
    <text
       id="text53"
       xml:space="preserve"
       transform="matrix(0.89732524,0,0,0.89732524,490.20044,111.32182)"
       clip-path="url(#clipPath54)"><tspan
         style="font-variant:normal;font-weight:normal;font-size:12px;font-family:Arial;writing-mode:lr-tb;fill:#000000;fill-opacity:1;fill-rule:nonzero;stroke:none"
         x="0 8.6660156 15.339844 18.673828"
         y="0"
         id="tspan53">Data</tspan></text>
    <path
       id="path55"
       d="m 600,70 h 100 v 60 H 600 Z"
       style="fill:#ffff88;fill-opacity:1;fill-rule:nonzero;stroke:#36393d;stroke-width:1;stroke-linecap:butt;stroke-linejoin:miter;stroke-miterlimit:10;stroke-dasharray:none;stroke-opacity:1"
       transform="matrix(0.89732524,0,0,0.89732524,26.451542,18.448661)"
       clip-path="url(#clipPath56)" />
    <text
       id="text56"
       xml:space="preserve"
       transform="matrix(0.89732524,0,0,0.89732524,597.59906,111.32182)"
       clip-path="url(#clipPath57)"><tspan
         style="font-variant:normal;font-weight:normal;font-size:12px;font-family:Arial;writing-mode:lr-tb;fill:#000000;fill-opacity:1;fill-rule:nonzero;stroke:none"
         x="0 8.6660156 17.332031"
         y="0"
         id="tspan56">CRC</tspan></text>
    <path
       id="path58"
       d="M 346.37,50 H 693.63"
       style="fill:none;stroke:#000000;stroke-width:1;stroke-linecap:butt;stroke-linejoin:miter;stroke-miterlimit:10;stroke-dasharray:none;stroke-opacity:1"
       transform="matrix(0.89732524,0,0,0.89732524,26.451542,18.448661)"
       clip-path="url(#clipPath59)" />
    <path
       id="path60"
       d="m 341.12,50 7,-3.5 -1.75,3.5 1.75,3.5 z"
       style="fill:#000000;fill-opacity:1;fill-rule:nonzero;stroke:#000000;stroke-width:1;stroke-linecap:butt;stroke-linejoin:miter;stroke-miterlimit:10;stroke-dasharray:none;stroke-opacity:1"
       transform="matrix(0.89732524,0,0,0.89732524,26.451542,18.448661)"
       clip-path="url(#clipPath61)" />
    <path
       id="path62"
       d="m 698.88,50 -7,3.5 1.75,-3.5 -1.75,-3.5 z"
       style="fill:#000000;fill-opacity:1;fill-rule:nonzero;stroke:#000000;stroke-width:1;stroke-linecap:butt;stroke-linejoin:miter;stroke-miterlimit:10;stroke-dasharray:none;stroke-opacity:1"
       transform="matrix(0.89732524,0,0,0.89732524,26.451542,18.448661)"
       clip-path="url(#clipPath63)" />
    <path
       id="path64"
       d="m 477,43 h 89 v 18 h -89 z"
       style="fill:#ffffff;fill-opacity:1;fill-rule:nonzero;stroke:none"
       transform="matrix(0.89732524,0,0,0.89732524,26.00288,17.999999)"
       clip-path="url(#clipPath65)" />
    <text
       id="text65"
       xml:space="preserve"
       transform="matrix(0.89732524,0,0,0.89732524,454.43363,69.147538)"
       clip-path="url(#clipPath66)"><tspan
         style="font-variant:normal;font-weight:normal;font-size:15px;font-family:Arial;writing-mode:lr-tb;fill:#000000;fill-opacity:1;fill-rule:nonzero;stroke:none"
         x="0 12.495117 20.837402 29.179688 37.521973 45.864258 53.364258 57.531738 68.093262 77.255859"
         y="0"
         id="tspan65">Modbus RTU</tspan></text>
    <path
       id="path67"
       d="M 400,220 H 600"
       style="fill:none;stroke:#000000;stroke-width:1;stroke-linecap:butt;stroke-linejoin:miter;stroke-miterlimit:10;stroke-dasharray:none;stroke-opacity:1"
       transform="matrix(0.89732524,0,0,0.89732524,26.451542,18.448661)"
       clip-path="url(#clipPath68)" />
  </g>
</svg>
