<?xml version="1.0" encoding="UTF-8" standalone="no"?>
<!-- Created with Inkscape (http://www.inkscape.org/) -->

<svg
   version="1.1"
   id="svg1"
   width="542.46936"
   height="199.81888"
   viewBox="0 0 542.46936 199.81888"
   xmlns="http://www.w3.org/2000/svg"
   xmlns:svg="http://www.w3.org/2000/svg">
  <defs
     id="defs1">
    <clipPath
       clipPathUnits="userSpaceOnUse"
       id="clipPath4">
      <path
         d="m 78.125,28.125 h 1718.75 v 668.75 H 78.125 Z"
         transform="matrix(0.36455515,0,0,0.36455515,8.8727229,28.10765)"
         clip-rule="evenodd"
         id="path4" />
    </clipPath>
    <clipPath
       clipPathUnits="userSpaceOnUse"
       id="clipPath5">
      <path
         d="m 78.125,28.125 h 1718.75 v 668.75 H 78.125 Z"
         transform="matrix(0.36455515,0,0,0.36455515,-140.61165,-143.39235)"
         clip-rule="evenodd"
         id="path5" />
    </clipPath>
    <clipPath
       clipPathUnits="userSpaceOnUse"
       id="clipPath6">
      <path
         d="m 78.125,28.125 h 1718.75 v 668.75 H 78.125 Z"
         transform="matrix(0.36455515,0,0,0.36455515,-136.15853,-172.39235)"
         clip-rule="evenodd"
         id="path6" />
    </clipPath>
    <clipPath
       clipPathUnits="userSpaceOnUse"
       id="clipPath7">
      <path
         d="m 78.125,28.125 h 1718.75 v 668.75 H 78.125 Z"
         transform="matrix(0.36455515,0,0,0.36455515,-121.7054,-187.39235)"
         clip-rule="evenodd"
         id="path7" />
    </clipPath>
    <clipPath
       clipPathUnits="userSpaceOnUse"
       id="clipPath9">
      <path
         d="m 78.125,28.125 h 1718.75 v 668.75 H 78.125 Z"
         transform="matrix(0.36455515,0,0,0.36455515,8.8727229,28.10765)"
         clip-rule="evenodd"
         id="path9" />
    </clipPath>
    <clipPath
       clipPathUnits="userSpaceOnUse"
       id="clipPath10">
      <path
         d="m 78.125,28.125 h 1718.75 v 668.75 H 78.125 Z"
         transform="matrix(0.36455515,0,0,0.36455515,-321.93977,-143.39235)"
         clip-rule="evenodd"
         id="path10" />
    </clipPath>
    <clipPath
       clipPathUnits="userSpaceOnUse"
       id="clipPath11">
      <path
         d="m 78.125,28.125 h 1718.75 v 668.75 H 78.125 Z"
         transform="matrix(0.36455515,0,0,0.36455515,-326.15853,-172.39235)"
         clip-rule="evenodd"
         id="path11" />
    </clipPath>
    <clipPath
       clipPathUnits="userSpaceOnUse"
       id="clipPath12">
      <path
         d="m 78.125,28.125 h 1718.75 v 668.75 H 78.125 Z"
         transform="matrix(0.36455515,0,0,0.36455515,-315.31478,-187.39235)"
         clip-rule="evenodd"
         id="path12" />
    </clipPath>
    <clipPath
       clipPathUnits="userSpaceOnUse"
       id="clipPath14">
      <path
         d="m 78.125,28.125 h 1718.75 v 668.75 H 78.125 Z"
         transform="matrix(0.36455515,0,0,0.36455515,8.8727229,28.10765)"
         clip-rule="evenodd"
         id="path14" />
    </clipPath>
    <clipPath
       clipPathUnits="userSpaceOnUse"
       id="clipPath15">
      <path
         d="m 78.125,28.125 h 1718.75 v 668.75 H 78.125 Z"
         transform="matrix(0.36455515,0,0,0.36455515,-483.72102,-200.39235)"
         clip-rule="evenodd"
         id="path15" />
    </clipPath>
    <clipPath
       clipPathUnits="userSpaceOnUse"
       id="clipPath17">
      <path
         d="m 78.125,28.125 h 1718.75 v 668.75 H 78.125 Z"
         transform="matrix(0.36455515,0,0,0.36455515,8.8727229,28.10765)"
         clip-rule="evenodd"
         id="path17" />
    </clipPath>
    <clipPath
       clipPathUnits="userSpaceOnUse"
       id="clipPath18">
      <path
         d="m 78.125,28.125 h 1718.75 v 668.75 H 78.125 Z"
         transform="matrix(0.36455515,0,0,0.36455515,-483.72102,-130.39235)"
         clip-rule="evenodd"
         id="path18" />
    </clipPath>
    <clipPath
       clipPathUnits="userSpaceOnUse"
       id="clipPath20">
      <path
         d="m 78.125,28.125 h 1718.75 v 668.75 H 78.125 Z"
         transform="matrix(0.36455515,0,0,0.36455515,8.8727229,28.10765)"
         clip-rule="evenodd"
         id="path20" />
    </clipPath>
    <clipPath
       clipPathUnits="userSpaceOnUse"
       id="clipPath22">
      <path
         d="m 78.125,28.125 h 1718.75 v 668.75 H 78.125 Z"
         transform="matrix(0.36455515,0,0,0.36455515,8.8727229,28.10765)"
         clip-rule="evenodd"
         id="path22" />
    </clipPath>
    <clipPath
       clipPathUnits="userSpaceOnUse"
       id="clipPath24">
      <path
         d="m 78.125,28.125 h 1718.75 v 668.75 H 78.125 Z"
         transform="matrix(0.36455515,0,0,0.36455515,8.8727229,28.10765)"
         clip-rule="evenodd"
         id="path24" />
    </clipPath>
    <clipPath
       clipPathUnits="userSpaceOnUse"
       id="clipPath26">
      <path
         d="m 78.125,28.125 h 1718.75 v 668.75 H 78.125 Z"
         transform="matrix(0.36455515,0,0,0.36455515,8.8727229,28.10765)"
         clip-rule="evenodd"
         id="path26" />
    </clipPath>
    <clipPath
       clipPathUnits="userSpaceOnUse"
       id="clipPath28">
      <path
         d="m 78.125,28.125 h 1718.75 v 668.75 H 78.125 Z"
         transform="matrix(0.36455515,0,0,0.36455515,8.8727229,28.10765)"
         clip-rule="evenodd"
         id="path28" />
    </clipPath>
    <clipPath
       clipPathUnits="userSpaceOnUse"
       id="clipPath30">
      <path
         d="m 78.125,28.125 h 1718.75 v 668.75 H 78.125 Z"
         transform="matrix(0.36455515,0,0,0.36455515,8.8727229,28.10765)"
         clip-rule="evenodd"
         id="path30" />
    </clipPath>
    <clipPath
       clipPathUnits="userSpaceOnUse"
       id="clipPath31">
      <path
         d="m 78.125,28.125 h 1718.75 v 668.75 H 78.125 Z"
         transform="matrix(0.36455515,0,0,0.36455515,-39.267899,-23.392353)"
         clip-rule="evenodd"
         id="path31" />
    </clipPath>
    <clipPath
       clipPathUnits="userSpaceOnUse"
       id="clipPath32">
      <path
         d="m 78.125,28.125 h 1718.75 v 668.75 H 78.125 Z"
         transform="matrix(0.36455515,0,0,0.36455515,-43.267898,-38.392353)"
         clip-rule="evenodd"
         id="path32" />
    </clipPath>
    <clipPath
       clipPathUnits="userSpaceOnUse"
       id="clipPath34">
      <path
         d="m 78.125,28.125 h 1718.75 v 668.75 H 78.125 Z"
         transform="matrix(0.36455515,0,0,0.36455515,9.3727263,28.607647)"
         clip-rule="evenodd"
         id="path34" />
    </clipPath>
    <clipPath
       clipPathUnits="userSpaceOnUse"
       id="clipPath35">
      <path
         d="m 78.125,28.125 h 1718.75 v 668.75 H 78.125 Z"
         transform="matrix(0.36455515,0,0,0.36455515,-145.61165,-32.392353)"
         clip-rule="evenodd"
         id="path35" />
    </clipPath>
    <clipPath
       clipPathUnits="userSpaceOnUse"
       id="clipPath36">
      <path
         d="m 78.125,28.125 h 1718.75 v 668.75 H 78.125 Z"
         transform="matrix(0.36455515,0,0,0.36455515,-328.11165,-32.392353)"
         clip-rule="evenodd"
         id="path36" />
    </clipPath>
    <clipPath
       clipPathUnits="userSpaceOnUse"
       id="clipPath37">
      <path
         d="m 78.125,28.125 h 1718.75 v 668.75 H 78.125 Z"
         transform="matrix(0.36455515,0,0,0.36455515,-525.61166,-32.392353)"
         clip-rule="evenodd"
         id="path37" />
    </clipPath>
    <clipPath
       clipPathUnits="userSpaceOnUse"
       id="clipPath38">
      <path
         d="m 78.125,28.125 h 1718.75 v 668.75 H 78.125 Z"
         transform="matrix(0.36455515,0,0,0.36455515,-237.62727,-165.39235)"
         clip-rule="evenodd"
         id="path38" />
    </clipPath>
    <clipPath
       clipPathUnits="userSpaceOnUse"
       id="clipPath39">
      <path
         d="m 78.125,28.125 h 1718.75 v 668.75 H 78.125 Z"
         transform="matrix(0.36455515,0,0,0.36455515,-412.81477,-165.39235)"
         clip-rule="evenodd"
         id="path39" />
    </clipPath>
    <clipPath
       clipPathUnits="userSpaceOnUse"
       id="clipPath40">
      <path
         d="m 78.125,28.125 h 1718.75 v 668.75 H 78.125 Z"
         transform="matrix(0.36455515,0,0,0.36455515,-376.17415,-135.39236)"
         clip-rule="evenodd"
         id="path40" />
    </clipPath>
    <clipPath
       clipPathUnits="userSpaceOnUse"
       id="clipPath41">
      <path
         d="m 78.125,28.125 h 1718.75 v 668.75 H 78.125 Z"
         transform="matrix(0.36455515,0,0,0.36455515,-376.17415,-195.39235)"
         clip-rule="evenodd"
         id="path41" />
    </clipPath>
    <clipPath
       clipPathUnits="userSpaceOnUse"
       id="clipPath42">
      <path
         d="m 78.125,28.125 h 1718.75 v 668.75 H 78.125 Z"
         transform="matrix(0.36455515,0,0,0.36455515,-286.17415,-158.39235)"
         clip-rule="evenodd"
         id="path42" />
    </clipPath>
    <clipPath
       clipPathUnits="userSpaceOnUse"
       id="clipPath43">
      <path
         d="m 78.125,28.125 h 1718.75 v 668.75 H 78.125 Z"
         transform="matrix(0.36455515,0,0,0.36455515,-286.17415,-173.39236)"
         clip-rule="evenodd"
         id="path43" />
    </clipPath>
    <clipPath
       clipPathUnits="userSpaceOnUse"
       id="clipPath44">
      <path
         d="m 78.125,28.125 h 1718.75 v 668.75 H 78.125 Z"
         transform="matrix(0.36455515,0,0,0.36455515,-197.92415,-90.392353)"
         clip-rule="evenodd"
         id="path44" />
    </clipPath>
    <clipPath
       clipPathUnits="userSpaceOnUse"
       id="clipPath45">
      <path
         d="m 78.125,28.125 h 1718.75 v 668.75 H 78.125 Z"
         transform="matrix(0.36455515,0,0,0.36455515,-194.90852,-240.39236)"
         clip-rule="evenodd"
         id="path45" />
    </clipPath>
    <clipPath
       clipPathUnits="userSpaceOnUse"
       id="clipPath46">
      <path
         d="m 78.125,28.125 h 1718.75 v 668.75 H 78.125 Z"
         transform="matrix(0.36455515,0,0,0.36455515,-399.97102,-90.392353)"
         clip-rule="evenodd"
         id="path46" />
    </clipPath>
    <clipPath
       clipPathUnits="userSpaceOnUse"
       id="clipPath47">
      <path
         d="m 78.125,28.125 h 1718.75 v 668.75 H 78.125 Z"
         transform="matrix(0.36455515,0,0,0.36455515,-399.97102,-240.39236)"
         clip-rule="evenodd"
         id="path47" />
    </clipPath>
    <clipPath
       clipPathUnits="userSpaceOnUse"
       id="clipPath48">
      <path
         d="m 78.125,28.125 h 1718.75 v 668.75 H 78.125 Z"
         transform="matrix(0.36455515,0,0,0.36455515,-188.9554,-158.39235)"
         clip-rule="evenodd"
         id="path48" />
    </clipPath>
    <clipPath
       clipPathUnits="userSpaceOnUse"
       id="clipPath49">
      <path
         d="m 78.125,28.125 h 1718.75 v 668.75 H 78.125 Z"
         transform="matrix(0.36455515,0,0,0.36455515,-188.9554,-173.39236)"
         clip-rule="evenodd"
         id="path49" />
    </clipPath>
  </defs>
  <g
     id="g1"
     transform="translate(-26.884073,-12.993378)">
    <path
       id="path3"
       d="M 100,130 H 220 V 250 H 100 Z"
       style="fill:#ffffff;fill-opacity:1;fill-rule:nonzero;stroke:#000000;stroke-width:1;stroke-linecap:butt;stroke-linejoin:miter;stroke-miterlimit:10;stroke-dasharray:none;stroke-opacity:1"
       transform="matrix(0.87778211,0,0,0.87778211,-7.7883174,-24.672392)"
       clip-path="url(#clipPath4)" />
    <text
       id="text4"
       xml:space="preserve"
       transform="matrix(0.87778211,0,0,0.87778211,123.42639,125.86724)"
       clip-path="url(#clipPath5)"><tspan
         style="font-variant:normal;font-weight:700;font-size:12px;font-family:Arial;writing-mode:lr-tb;fill:#000000;fill-opacity:1;fill-rule:nonzero;stroke:none"
         x="0 8.6660156 16.669922"
         y="0"
         id="tspan4">RPI</tspan></text>
    <text
       id="text5"
       xml:space="preserve"
       transform="matrix(0.87778211,0,0,0.87778211,119.51752,151.32292)"
       clip-path="url(#clipPath6)"><tspan
         style="font-variant:normal;font-weight:normal;font-stretch:semi-condensed;font-size:12px;font-family:'Lucida Console';writing-mode:lr-tb;fill:#000000;fill-opacity:1;fill-rule:nonzero;stroke:none"
         x="0 7.2304688 14.460938 21.691406"
         y="0"
         id="tspan5">0x01</tspan></text>
    <text
       id="text6"
       xml:space="preserve"
       transform="matrix(0.87778211,0,0,0.87778211,106.83082,164.48965)"
       clip-path="url(#clipPath7)"><tspan
         style="font-variant:normal;font-weight:normal;font-stretch:semi-condensed;font-size:12px;font-family:'Lucida Console';writing-mode:lr-tb;fill:#000000;fill-opacity:1;fill-rule:nonzero;stroke:none"
         x="0 7.2304688 14.460938 21.691406 28.921875 36.152344 43.382812 50.613281"
         y="0"
         id="tspan6">(Master)</tspan></text>
    <path
       id="path8"
       d="M 290,130 H 410 V 250 H 290 Z"
       style="fill:#ffffff;fill-opacity:1;fill-rule:nonzero;stroke:#000000;stroke-width:1;stroke-linecap:butt;stroke-linejoin:miter;stroke-miterlimit:10;stroke-dasharray:none;stroke-opacity:1"
       transform="matrix(0.87778211,0,0,0.87778211,-7.7883174,-24.672392)"
       clip-path="url(#clipPath9)" />
    <text
       id="text9"
       xml:space="preserve"
       transform="matrix(0.87778211,0,0,0.87778211,282.59297,125.86724)"
       clip-path="url(#clipPath10)"><tspan
         style="font-variant:normal;font-weight:700;font-size:12px;font-family:Arial;writing-mode:lr-tb;fill:#000000;fill-opacity:1;fill-rule:nonzero;stroke:none"
         x="0 8.0039062 16.007812 24.011719 30.685547"
         y="0"
         id="tspan9">ESP32</tspan></text>
    <text
       id="text10"
       xml:space="preserve"
       transform="matrix(0.87778211,0,0,0.87778211,286.29612,151.32292)"
       clip-path="url(#clipPath11)"><tspan
         style="font-variant:normal;font-weight:normal;font-stretch:semi-condensed;font-size:12px;font-family:'Lucida Console';writing-mode:lr-tb;fill:#000000;fill-opacity:1;fill-rule:nonzero;stroke:none"
         x="0 7.2304688 14.460938 21.691406"
         y="0"
         id="tspan10">0x21</tspan></text>
    <text
       id="text11"
       xml:space="preserve"
       transform="matrix(0.87778211,0,0,0.87778211,276.77767,164.48965)"
       clip-path="url(#clipPath12)"><tspan
         style="font-variant:normal;font-weight:normal;font-stretch:semi-condensed;font-size:12px;font-family:'Lucida Console';writing-mode:lr-tb;fill:#000000;fill-opacity:1;fill-rule:nonzero;stroke:none"
         x="0 7.2304688 14.460938 21.691406 28.921875 36.152344 43.382812"
         y="0"
         id="tspan11">(Slave)</tspan></text>
    <path
       id="path13"
       d="m 480,200 h 120 v 50 H 480 Z"
       style="fill:#ffffff;fill-opacity:1;fill-rule:nonzero;stroke:#000000;stroke-width:1;stroke-linecap:butt;stroke-linejoin:miter;stroke-miterlimit:10;stroke-dasharray:none;stroke-opacity:1"
       transform="matrix(0.87778211,0,0,0.87778211,-7.7883174,-24.672392)"
       clip-path="url(#clipPath14)" />
    <text
       id="text14"
       xml:space="preserve"
       transform="matrix(0.87778211,0,0,0.87778211,424.60166,175.90082)"
       clip-path="url(#clipPath15)"><tspan
         style="font-variant:normal;font-weight:700;font-size:12px;font-family:Arial;writing-mode:lr-tb;fill:#000000;fill-opacity:1;fill-rule:nonzero;stroke:none"
         x="0 7.3300781 14.660156 17.994141 21.328125 28.001953 31.998047 38.671875 46.001953 53.332031 56.666016 63.105469 69.779297 77.109375 83.783203 87.117188"
         y="0"
         id="tspan14">Füllstand Tank 2</tspan></text>
    <path
       id="path16"
       d="m 480,130 h 120 v 50 H 480 Z"
       style="fill:#ffffff;fill-opacity:1;fill-rule:nonzero;stroke:#000000;stroke-width:1;stroke-linecap:butt;stroke-linejoin:miter;stroke-miterlimit:10;stroke-dasharray:none;stroke-opacity:1"
       transform="matrix(0.87778211,0,0,0.87778211,-7.7883174,-24.672392)"
       clip-path="url(#clipPath17)" />
    <text
       id="text17"
       xml:space="preserve"
       transform="matrix(0.87778211,0,0,0.87778211,424.60166,114.45607)"
       clip-path="url(#clipPath18)"><tspan
         style="font-variant:normal;font-weight:700;font-size:12px;font-family:Arial;writing-mode:lr-tb;fill:#000000;fill-opacity:1;fill-rule:nonzero;stroke:none"
         x="0 7.3300781 14.660156 17.994141 21.328125 28.001953 31.998047 38.671875 46.001953 53.332031 56.666016 63.105469 69.779297 77.109375 83.783203 87.117188"
         y="0"
         id="tspan17">Füllstand Tank 1</tspan></text>
    <path
       id="path19"
       d="m 220.5,165 v -10 h 50 v -10.5 l 19,15.5 -19,15.5 V 165 Z"
       style="fill:none;stroke:#000000;stroke-width:1;stroke-linecap:butt;stroke-linejoin:miter;stroke-miterlimit:10;stroke-dasharray:none;stroke-opacity:1"
       transform="matrix(0.87778211,0,0,0.87778211,-7.7883174,-24.672392)"
       clip-path="url(#clipPath20)" />
    <path
       id="path21"
       d="m 289.5,215 v 10 h -50 v 10.5 l -19,-15.5 19,-15.5 V 215 Z"
       style="fill:none;stroke:#000000;stroke-width:1;stroke-linecap:butt;stroke-linejoin:miter;stroke-miterlimit:10;stroke-dasharray:none;stroke-opacity:1"
       transform="matrix(0.87778211,0,0,0.87778211,-7.7883174,-24.672392)"
       clip-path="url(#clipPath22)" />
    <path
       id="path23"
       d="m 480,160.28 -63.63,-0.25"
       style="fill:none;stroke:#000000;stroke-width:1;stroke-linecap:butt;stroke-linejoin:miter;stroke-miterlimit:10;stroke-dasharray:none;stroke-opacity:1"
       transform="matrix(0.87778211,0,0,0.87778211,-7.7883174,-24.672392)"
       clip-path="url(#clipPath24)" />
    <path
       id="path25"
       d="m 411.12,160 7.01,-3.47 -1.76,3.5 1.73001,3.5 z"
       style="fill:#000000;fill-opacity:1;fill-rule:nonzero;stroke:#000000;stroke-width:1;stroke-linecap:butt;stroke-linejoin:miter;stroke-miterlimit:10;stroke-dasharray:none;stroke-opacity:1"
       transform="matrix(0.87778211,0,0,0.87778211,-7.7883174,-24.672392)"
       clip-path="url(#clipPath26)" />
    <path
       id="path27"
       d="m 480,220.75999 -63.63,-0.68998"
       style="fill:none;stroke:#000000;stroke-width:1;stroke-linecap:butt;stroke-linejoin:miter;stroke-miterlimit:10;stroke-dasharray:none;stroke-opacity:1"
       transform="matrix(0.87778211,0,0,0.87778211,-7.7883174,-24.672392)"
       clip-path="url(#clipPath28)" />
    <path
       id="path29"
       d="m 411.12,220.00999 7.04,-3.41999 -1.79,3.48001 1.70999,3.51999 z"
       style="fill:#000000;fill-opacity:1;fill-rule:nonzero;stroke:#000000;stroke-width:1;stroke-linecap:butt;stroke-linejoin:miter;stroke-miterlimit:10;stroke-dasharray:none;stroke-opacity:1"
       transform="matrix(0.87778211,0,0,0.87778211,-7.7883174,-24.672392)"
       clip-path="url(#clipPath30)" />
    <text
       id="text30"
       xml:space="preserve"
       transform="matrix(0.87778211,0,0,0.87778211,34.468659,20.533389)"
       clip-path="url(#clipPath31)"><tspan
         style="font-variant:normal;font-weight:normal;font-size:12px;font-family:Arial;writing-mode:lr-tb;fill:#000000;fill-opacity:1;fill-rule:nonzero;stroke:none"
         x="0 8.0039062 14.677734 18.673828 25.347656 32.021484 38.695312"
         y="0"
         id="tspan30">Purdue-</tspan></text>
    <text
       id="text31"
       xml:space="preserve"
       transform="matrix(0.87778211,0,0,0.87778211,37.979787,33.700121)"
       clip-path="url(#clipPath32)"><tspan
         style="font-variant:normal;font-weight:normal;font-size:12px;font-family:Arial;writing-mode:lr-tb;fill:#000000;fill-opacity:1;fill-rule:nonzero;stroke:none"
         x="0 8.0039062 14.677734 21.351562 28.025391"
         y="0"
         id="tspan31">Ebene</tspan></text>
    <path
       id="path33"
       d="m 40,79 h 2 v 2 h -2 m 8,-2 h 2 v 2 h -2 m 8,-2 h 2 v 2 h -2 m 8,-2 h 2 v 2 h -2 m 8,-2 h 2 v 2 h -2 m 8,-2 h 2 v 2 h -2 m 8,-2 h 2 v 2 h -2 m 8,-2 h 2 v 2 h -2 m 8,-2 h 2 v 2 h -2 m 8,-2 h 2 v 2 h -2 m 8,-2 h 2 v 2 h -2 m 8,-2 h 2 v 2 h -2 m 8,-2 h 2 v 2 h -2 m 8,-2 h 2 v 2 h -2 m 8,-2 h 2 v 2 h -2 m 8,-2 h 2 v 2 h -2 m 8,-2 h 2 v 2 h -2 m 8,-2 h 2 v 2 h -2 m 8,-2 h 2 v 2 h -2 m 8,-2 h 2 v 2 h -2 m 8,-2 h 2 v 2 h -2 m 8,-2 h 2 v 2 h -2 m 8,-2 h 2 v 2 h -2 m 8,-2 h 2 v 2 h -2 m 8,-2 h 2 v 2 h -2 m 8,-2 h 2 v 2 h -2 m 8,-2 h 2 v 2 h -2 m 8,-2 h 2 v 2 h -2 m 8,-2 h 2 v 2 h -2 m 8,-2 h 2 v 2 h -2 m 8,-2 h 2 v 2 h -2 m 8,-2 h 2 v 2 h -2 m 8,-2 h 2 v 2 h -2 m 8,-2 h 2 v 2 h -2 m 8,-2 h 2 v 2 h -2 m 8,-2 h 2 v 2 h -2 m 8,-2 h 2 v 2 h -2 m 8,-2 h 2 v 2 h -2 m 8,-2 h 2 v 2 h -2 m 8,-2 h 2 v 2 h -2 m 8,-2 h 2 v 2 h -2 m 8,-2 h 2 v 2 h -2 m 8,-2 h 2 v 2 h -2 m 8,-2 h 2 v 2 h -2 m 8,-2 h 2 v 2 h -2 m 8,-2 h 2 v 2 h -2 m 8,-2 h 2 v 2 h -2 m 8,-2 h 2 v 2 h -2 m 8,-2 h 2 v 2 h -2 m 8,-2 h 2 v 2 h -2 m 8,-2 h 2 v 2 h -2 m 8,-2 h 2 v 2 h -2 m 8,-2 h 2 v 2 h -2 m 8,-2 h 2 v 2 h -2 m 8,-2 h 2 v 2 h -2 m 8,-2 h 2 v 2 h -2 m 8,-2 h 2 v 2 h -2 m 8,-2 h 2 v 2 h -2 m 8,-2 h 2 v 2 h -2 m 8,-2 h 2 v 2 h -2 m 8,-2 h 2 v 2 h -2 m 8,-2 h 2 v 2 h -2 m 8,-2 h 2 v 2 h -2 m 8,-2 h 2 v 2 h -2 m 8,-2 h 2 v 2 h -2 m 8,-2 h 2 v 2 h -2 m 8,-2 h 2 v 2 h -2 m 8,-2 h 2 v 2 h -2 m 8,-2 h 2 v 2 h -2 m 8,-2 h 2 v 2 h -2 m 8,-2 h 2 v 2 h -2 m 8,-2 h 2 v 2 h -2 m 8,-2 h 2 v 2 h -2 m 8,-2 h 2 v 2 h -2 m 8,-2 h 2 v 2 h -2 m 8,-2 h 2 v 2 h -2 m 8,-2 h 2 v 2 h -2 m 8,-2 h 2 v 2 h -2"
       style="fill:#000000;fill-opacity:1;fill-rule:nonzero;stroke:none"
       transform="matrix(0.87778211,0,0,0.87778211,-8.2272115,-25.111281)"
       clip-path="url(#clipPath34)" />
    <text
       id="text34"
       xml:space="preserve"
       transform="matrix(0.87778211,0,0,0.87778211,127.8153,28.433428)"
       clip-path="url(#clipPath35)"><tspan
         style="font-variant:normal;font-weight:normal;font-size:18px;font-family:Arial;writing-mode:lr-tb;fill:#000000;fill-opacity:1;fill-rule:nonzero;stroke:none"
         x="0"
         y="0"
         id="tspan34">1</tspan></text>
    <text
       id="text35"
       xml:space="preserve"
       transform="matrix(0.87778211,0,0,0.87778211,288.01054,28.433428)"
       clip-path="url(#clipPath36)"><tspan
         style="font-variant:normal;font-weight:normal;font-size:18px;font-family:Arial;writing-mode:lr-tb;fill:#000000;fill-opacity:1;fill-rule:nonzero;stroke:none"
         x="0 10.010742 15.011719"
         y="0"
         id="tspan35">0.5</tspan></text>
    <text
       id="text36"
       xml:space="preserve"
       transform="matrix(0.87778211,0,0,0.87778211,461.37251,28.433428)"
       clip-path="url(#clipPath37)"><tspan
         style="font-variant:normal;font-weight:normal;font-size:18px;font-family:Arial;writing-mode:lr-tb;fill:#000000;fill-opacity:1;fill-rule:nonzero;stroke:none"
         x="0"
         y="0"
         id="tspan36">0</tspan></text>
    <text
       id="text37"
       xml:space="preserve"
       transform="matrix(0.87778211,0,0,0.87778211,208.58497,145.17845)"
       clip-path="url(#clipPath38)"><tspan
         style="font-variant:normal;font-weight:normal;font-size:12px;font-family:Arial;writing-mode:lr-tb;fill:#000000;fill-opacity:1;fill-rule:nonzero;stroke:none"
         x="0 3.3339844 7.3300781"
         y="0"
         id="tspan37">I²C</tspan></text>
    <text
       id="text38"
       xml:space="preserve"
       transform="matrix(0.87778211,0,0,0.87778211,362.36142,145.17845)"
       clip-path="url(#clipPath39)"><tspan
         style="font-variant:normal;font-weight:normal;font-size:10px;font-family:Arial;writing-mode:lr-tb;fill:#000000;fill-opacity:1;fill-rule:nonzero;stroke:none"
         x="0 6.6699219 12.231445 17.792969 23.354492 28.916016 34.477539 40.039062"
         y="0"
         id="tspan38">Spannung</tspan></text>
    <text
       id="text39"
       xml:space="preserve"
       transform="matrix(0.87778211,0,0,0.87778211,330.19894,118.84499)"
       clip-path="url(#clipPath40)"><tspan
         style="font-variant:normal;font-weight:normal;font-size:10px;font-family:Arial;writing-mode:lr-tb;fill:#000000;fill-opacity:1;fill-rule:nonzero;stroke:none"
         x="0 7.7783203 13.339844"
         y="0"
         id="tspan39">G34</tspan></text>
    <text
       id="text40"
       xml:space="preserve"
       transform="matrix(0.87778211,0,0,0.87778211,330.19894,171.51191)"
       clip-path="url(#clipPath41)"><tspan
         style="font-variant:normal;font-weight:normal;font-size:10px;font-family:Arial;writing-mode:lr-tb;fill:#000000;fill-opacity:1;fill-rule:nonzero;stroke:none"
         x="0 7.7783203 13.339844"
         y="0"
         id="tspan40">G35</tspan></text>
    <text
       id="text41"
       xml:space="preserve"
       transform="matrix(0.87778211,0,0,0.87778211,251.19855,139.03397)"
       clip-path="url(#clipPath42)"><tspan
         style="font-variant:normal;font-weight:normal;font-size:10px;font-family:Arial;writing-mode:lr-tb;fill:#000000;fill-opacity:1;fill-rule:nonzero;stroke:none"
         x="0 7.7783203 13.339844"
         y="0"
         id="tspan41">G21</tspan></text>
    <text
       id="text42"
       xml:space="preserve"
       transform="matrix(0.87778211,0,0,0.87778211,251.19855,152.20071)"
       clip-path="url(#clipPath43)"><tspan
         style="font-variant:normal;font-weight:normal;font-size:10px;font-family:Arial;writing-mode:lr-tb;fill:#000000;fill-opacity:1;fill-rule:nonzero;stroke:none"
         x="0 7.7783203 13.339844"
         y="0"
         id="tspan42">G22</tspan></text>
    <text
       id="text43"
       xml:space="preserve"
       transform="matrix(0.87778211,0,0,0.87778211,173.73428,79.34479)"
       clip-path="url(#clipPath44)"><tspan
         style="font-variant:normal;font-weight:normal;font-stretch:semi-condensed;font-size:10px;font-family:'Lucida Console';writing-mode:lr-tb;fill:#000000;fill-opacity:1;fill-rule:nonzero;stroke:none"
         x="0 6.0253906 12.050781 18.076172 24.101562 30.126953 36.152344 42.177734 48.203125 54.228516 60.253906 66.279297 72.304688 78.330078 84.355469 90.380859"
         y="0"
         id="tspan43">write_to_esp32()</tspan></text>
    <text
       id="text44"
       xml:space="preserve"
       transform="matrix(0.87778211,0,0,0.87778211,171.08721,211.01211)"
       clip-path="url(#clipPath45)"><tspan
         style="font-variant:normal;font-weight:normal;font-stretch:semi-condensed;font-size:10px;font-family:'Lucida Console';writing-mode:lr-tb;fill:#000000;fill-opacity:1;fill-rule:nonzero;stroke:none"
         x="0 6.0253906 12.050781 18.076172 24.101562 30.126953 36.152344 42.177734 48.203125 54.228516 60.253906 66.279297 72.304688 78.330078 84.355469 90.380859 96.40625"
         y="0"
         id="tspan44">read_from_esp32()</tspan></text>
    <text
       id="text45"
       xml:space="preserve"
       transform="matrix(0.87778211,0,0,0.87778211,351.08741,79.34479)"
       clip-path="url(#clipPath46)"><tspan
         style="font-variant:normal;font-weight:normal;font-stretch:semi-condensed;font-size:10px;font-family:'Lucida Console';writing-mode:lr-tb;fill:#000000;fill-opacity:1;fill-rule:nonzero;stroke:none"
         x="0 6.0253906 12.050781 18.076172 24.101562 30.126953 36.152344 42.177734 48.203125 54.228516 60.253906 66.279297"
         y="0"
         id="tspan45">analogRead()</tspan></text>
    <text
       id="text46"
       xml:space="preserve"
       transform="matrix(0.87778211,0,0,0.87778211,351.08741,211.01211)"
       clip-path="url(#clipPath47)"><tspan
         style="font-variant:normal;font-weight:normal;font-stretch:semi-condensed;font-size:10px;font-family:'Lucida Console';writing-mode:lr-tb;fill:#000000;fill-opacity:1;fill-rule:nonzero;stroke:none"
         x="0 6.0253906 12.050781 18.076172 24.101562 30.126953 36.152344 42.177734 48.203125 54.228516 60.253906 66.279297"
         y="0"
         id="tspan46">analogRead()</tspan></text>
    <text
       id="text47"
       xml:space="preserve"
       transform="matrix(0.87778211,0,0,0.87778211,165.86167,139.03397)"
       clip-path="url(#clipPath48)"><tspan
         style="font-variant:normal;font-weight:normal;font-size:10px;font-family:Arial;writing-mode:lr-tb;fill:#000000;fill-opacity:1;fill-rule:nonzero;stroke:none"
         x="0 7.7783203"
         y="0"
         id="tspan47">G2</tspan></text>
    <text
       id="text48"
       xml:space="preserve"
       transform="matrix(0.87778211,0,0,0.87778211,165.86167,152.20071)"
       clip-path="url(#clipPath49)"><tspan
         style="font-variant:normal;font-weight:normal;font-size:10px;font-family:Arial;writing-mode:lr-tb;fill:#000000;fill-opacity:1;fill-rule:nonzero;stroke:none"
         x="0 7.7783203"
         y="0"
         id="tspan48">G3</tspan></text>
  </g>
</svg>
